<?xml version="1.0" encoding="UTF-8" standalone="no"?>
<!DOCTYPE svg PUBLIC "-//W3C//DTD SVG 1.0//EN" "http://www.w3.org/TR/2001/PR-SVG-20010719/DTD/svg10.dtd">
<svg width="100%" height="100%" viewBox="117 235 1387 489" xmlns="http://www.w3.org/2000/svg" xmlns:xlink="http://www.w3.org/1999/xlink">
  <g>
    <ellipse style="fill: #ffffff" cx="240" cy="300" rx="60" ry="60"/>
    <ellipse style="fill: none; fill-opacity:0; stroke-width: 4; stroke: #1e90ff" cx="240" cy="300" rx="60" ry="60"/>
    <text font-size="50.8" style="fill: #000000;text-anchor:middle;font-family:sans-serif;font-style:normal;font-weight:normal" x="240" y="315.4">
      <tspan x="240" y="315.4">A</tspan>
    </text>
  </g>
  <g>
    <ellipse style="fill: #ffffff" cx="180" cy="660" rx="60" ry="60"/>
    <ellipse style="fill: none; fill-opacity:0; stroke-width: 4; stroke: #1e90ff" cx="180" cy="660" rx="60" ry="60"/>
    <text font-size="50.8" style="fill: #000000;text-anchor:middle;font-family:sans-serif;font-style:normal;font-weight:normal" x="180" y="675.4">
      <tspan x="180" y="675.4">B</tspan>
    </text>
  </g>
  <g>
    <ellipse style="fill: #ffffff" cx="360" cy="480" rx="60" ry="60"/>
    <ellipse style="fill: none; fill-opacity:0; stroke-width: 4; stroke: #1e90ff" cx="360" cy="480" rx="60" ry="60"/>
    <text font-size="50.8" style="fill: #000000;text-anchor:middle;font-family:sans-serif;font-style:normal;font-weight:normal" x="360" y="495.4">
      <tspan x="360" y="495.4">C</tspan>
    </text>
  </g>
  <g>
    <line style="fill: none; fill-opacity:0; stroke-width: 4; stroke: #1e90ff" x1="190.137" y1="599.18" x2="227.895" y2="372.63"/>
    <polygon style="fill: #1e90ff" points="229.128,365.232 232.416,375.918 227.895,372.63 222.552,374.274 "/>
    <polygon style="fill: none; fill-opacity:0; stroke-width: 4; stroke: #1e90ff" points="229.128,365.232 232.416,375.918 227.895,372.63 222.552,374.274 "/>
  </g>
  <g>
    <line style="fill: none; fill-opacity:0; stroke-width: 4; stroke: #1e90ff" x1="325.635" y1="428.452" x2="281.006" y2="361.509"/>
    <polygon style="fill: #1e90ff" points="276.846,355.269 286.553,360.816 281.006,361.509 278.233,366.363 "/>
    <polygon style="fill: none; fill-opacity:0; stroke-width: 4; stroke: #1e90ff" points="276.846,355.269 286.553,360.816 281.006,361.509 278.233,366.363 "/>
  </g>
  <g>
    <ellipse style="fill: #ffffff" cx="360" cy="660" rx="60" ry="60"/>
    <ellipse style="fill: none; fill-opacity:0; stroke-width: 4; stroke: #1e90ff" cx="360" cy="660" rx="60" ry="60"/>
    <text font-size="50.8" style="fill: #000000;text-anchor:middle;font-family:sans-serif;font-style:normal;font-weight:normal" x="360" y="675.4">
      <tspan x="360" y="675.4">D</tspan>
    </text>
  </g>
  <g>
    <line style="fill: none; fill-opacity:0; stroke-width: 4; stroke: #1e90ff" x1="360" y1="598.015" x2="360" y2="553.957"/>
    <polygon style="fill: #1e90ff" points="360,546.457 365,556.457 360,553.957 355,556.457 "/>
    <polygon style="fill: none; fill-opacity:0; stroke-width: 4; stroke: #1e90ff" points="360,546.457 365,556.457 360,553.957 355,556.457 "/>
  </g>
  <g>
    <ellipse style="fill: #ffffff" cx="600" cy="300" rx="60" ry="60"/>
    <ellipse style="fill: none; fill-opacity:0; stroke-width: 4; stroke: #1e90ff" cx="600" cy="300" rx="60" ry="60"/>
    <text font-size="50.8" style="fill: #000000;text-anchor:middle;font-family:sans-serif;font-style:normal;font-weight:normal" x="600" y="315.4">
      <tspan x="600" y="315.4">A</tspan>
    </text>
  </g>
  <g>
    <ellipse style="fill: #ffffff" cx="540" cy="660" rx="60" ry="60"/>
    <ellipse style="fill: none; fill-opacity:0; stroke-width: 8; stroke: #ff0000" cx="540" cy="660" rx="60" ry="60"/>
    <text font-size="50.8" style="fill: #000000;text-anchor:middle;font-family:sans-serif;font-style:normal;font-weight:normal" x="540" y="675.4">
      <tspan x="540" y="675.4">B</tspan>
    </text>
  </g>
  <g>
    <ellipse style="fill: #ffffff" cx="720" cy="480" rx="60" ry="60"/>
    <ellipse style="fill: none; fill-opacity:0; stroke-width: 4; stroke: #1e90ff" cx="720" cy="480" rx="60" ry="60"/>
    <text font-size="50.8" style="fill: #000000;text-anchor:middle;font-family:sans-serif;font-style:normal;font-weight:normal" x="720" y="495.4">
      <tspan x="720" y="495.4">C</tspan>
    </text>
  </g>
  <g>
    <line style="fill: none; fill-opacity:0; stroke-width: 4; stroke: #1e90ff" x1="550.522" y1="596.867" x2="587.895" y2="372.63"/>
    <polygon style="fill: #1e90ff" points="589.128,365.232 592.416,375.918 587.895,372.63 582.552,374.274 "/>
    <polygon style="fill: none; fill-opacity:0; stroke-width: 4; stroke: #1e90ff" points="589.128,365.232 592.416,375.918 587.895,372.63 582.552,374.274 "/>
  </g>
  <g>
    <line style="fill: none; fill-opacity:0; stroke-width: 4; stroke: #1e90ff" x1="685.635" y1="428.452" x2="641.006" y2="361.509"/>
    <polygon style="fill: #1e90ff" points="636.846,355.269 646.553,360.816 641.006,361.509 638.233,366.363 "/>
    <polygon style="fill: none; fill-opacity:0; stroke-width: 4; stroke: #1e90ff" points="636.846,355.269 646.553,360.816 641.006,361.509 638.233,366.363 "/>
  </g>
  <g>
    <ellipse style="fill: #ffffff" cx="720" cy="660" rx="60" ry="60"/>
    <ellipse style="fill: none; fill-opacity:0; stroke-width: 8; stroke: #ff0000" cx="720" cy="660" rx="60" ry="60"/>
    <text font-size="50.8" style="fill: #000000;text-anchor:middle;font-family:sans-serif;font-style:normal;font-weight:normal" x="720" y="675.4">
      <tspan x="720" y="675.4">D</tspan>
    </text>
  </g>
  <g>
    <line style="fill: none; fill-opacity:0; stroke-width: 4; stroke: #1e90ff" x1="720" y1="596.005" x2="720" y2="553.957"/>
    <polygon style="fill: #1e90ff" points="720,546.457 725,556.457 720,553.957 715,556.457 "/>
    <polygon style="fill: none; fill-opacity:0; stroke-width: 4; stroke: #1e90ff" points="720,546.457 725,556.457 720,553.957 715,556.457 "/>
  </g>
  <g>
    <ellipse style="fill: #ffffff" cx="960" cy="300" rx="60" ry="60"/>
    <ellipse style="fill: none; fill-opacity:0; stroke-width: 4; stroke: #1e90ff" cx="960" cy="300" rx="60" ry="60"/>
    <text font-size="50.8" style="fill: #000000;text-anchor:middle;font-family:sans-serif;font-style:normal;font-weight:normal" x="960" y="315.4">
      <tspan x="960" y="315.4">A</tspan>
    </text>
  </g>
  <g>
    <ellipse style="fill: #ffffff" cx="900" cy="660" rx="60" ry="60"/>
    <ellipse style="fill: none; fill-opacity:0; stroke-width: 8; stroke: #ff0000" cx="900" cy="660" rx="60" ry="60"/>
    <text font-size="50.8" style="fill: #000000;text-anchor:middle;font-family:sans-serif;font-style:normal;font-weight:normal" x="900" y="675.4">
      <tspan x="900" y="675.4">B</tspan>
    </text>
  </g>
  <g>
    <ellipse style="fill: #ffffff" cx="1080" cy="480" rx="60" ry="60"/>
    <ellipse style="fill: none; fill-opacity:0; stroke-width: 8; stroke: #ff0000" cx="1080" cy="480" rx="60" ry="60"/>
    <text font-size="50.8" style="fill: #000000;text-anchor:middle;font-family:sans-serif;font-style:normal;font-weight:normal" x="1080" y="495.4">
      <tspan x="1080" y="495.4">C</tspan>
    </text>
  </g>
  <g>
    <line style="fill: none; fill-opacity:0; stroke-width: 4; stroke: #1e90ff" x1="910.522" y1="596.867" x2="947.895" y2="372.63"/>
    <polygon style="fill: #1e90ff" points="949.128,365.232 952.416,375.918 947.895,372.63 942.552,374.274 "/>
    <polygon style="fill: none; fill-opacity:0; stroke-width: 4; stroke: #1e90ff" points="949.128,365.232 952.416,375.918 947.895,372.63 942.552,374.274 "/>
  </g>
  <g>
    <line style="fill: none; fill-opacity:0; stroke-width: 4; stroke: #1e90ff" x1="1044.55" y1="426.826" x2="1001.01" y2="361.509"/>
    <polygon style="fill: #1e90ff" points="996.846,355.269 1006.55,360.816 1001.01,361.509 998.233,366.363 "/>
    <polygon style="fill: none; fill-opacity:0; stroke-width: 4; stroke: #1e90ff" points="996.846,355.269 1006.55,360.816 1001.01,361.509 998.233,366.363 "/>
  </g>
  <g>
    <ellipse style="fill: #ffffff" cx="1080" cy="660" rx="60" ry="60"/>
    <ellipse style="fill: none; fill-opacity:0; stroke-width: 8; stroke: #ff0000" cx="1080" cy="660" rx="60" ry="60"/>
    <text font-size="50.8" style="fill: #000000;text-anchor:middle;font-family:sans-serif;font-style:normal;font-weight:normal" x="1080" y="675.4">
      <tspan x="1080" y="675.4">D</tspan>
    </text>
  </g>
  <g>
    <line style="fill: none; fill-opacity:0; stroke-width: 4; stroke: #ff0000" x1="1080" y1="596.005" x2="1080" y2="555.967"/>
    <polygon style="fill: #ff0000" points="1080,548.467 1085,558.467 1080,555.967 1075,558.467 "/>
    <polygon style="fill: none; fill-opacity:0; stroke-width: 4; stroke: #ff0000" points="1080,548.467 1085,558.467 1080,555.967 1075,558.467 "/>
  </g>
  <g>
    <ellipse style="fill: #ffffff" cx="1320" cy="300" rx="60" ry="60"/>
    <ellipse style="fill: none; fill-opacity:0; stroke-width: 8; stroke: #ff0000" cx="1320" cy="300" rx="60" ry="60"/>
    <text font-size="50.8" style="fill: #000000;text-anchor:middle;font-family:sans-serif;font-style:normal;font-weight:normal" x="1320" y="315.4">
      <tspan x="1320" y="315.4">A</tspan>
    </text>
  </g>
  <g>
    <ellipse style="fill: #ffffff" cx="1260" cy="660" rx="60" ry="60"/>
    <ellipse style="fill: none; fill-opacity:0; stroke-width: 8; stroke: #ff0000" cx="1260" cy="660" rx="60" ry="60"/>
    <text font-size="50.8" style="fill: #000000;text-anchor:middle;font-family:sans-serif;font-style:normal;font-weight:normal" x="1260" y="675.4">
      <tspan x="1260" y="675.4">B</tspan>
    </text>
  </g>
  <g>
    <ellipse style="fill: #ffffff" cx="1440" cy="480" rx="60" ry="60"/>
    <ellipse style="fill: none; fill-opacity:0; stroke-width: 8; stroke: #ff0000" cx="1440" cy="480" rx="60" ry="60"/>
    <text font-size="50.8" style="fill: #000000;text-anchor:middle;font-family:sans-serif;font-style:normal;font-weight:normal" x="1440" y="495.4">
      <tspan x="1440" y="495.4">C</tspan>
    </text>
  </g>
  <g>
    <line style="fill: none; fill-opacity:0; stroke-width: 4; stroke: #ff0000" x1="1270.52" y1="596.867" x2="1307.51" y2="374.942"/>
    <polygon style="fill: #ff0000" points="1308.74,367.544 1312.03,378.23 1307.51,374.942 1302.17,376.586 "/>
    <polygon style="fill: none; fill-opacity:0; stroke-width: 4; stroke: #ff0000" points="1308.74,367.544 1312.03,378.23 1307.51,374.942 1302.17,376.586 "/>
  </g>
  <g>
    <line style="fill: none; fill-opacity:0; stroke-width: 4; stroke: #ff0000" x1="1404.55" y1="426.826" x2="1362.09" y2="363.135"/>
    <polygon style="fill: #ff0000" points="1357.93,356.895 1367.64,362.442 1362.09,363.135 1359.32,367.989 "/>
    <polygon style="fill: none; fill-opacity:0; stroke-width: 4; stroke: #ff0000" points="1357.93,356.895 1367.64,362.442 1362.09,363.135 1359.32,367.989 "/>
  </g>
  <g>
    <ellipse style="fill: #ffffff" cx="1440" cy="660" rx="60" ry="60"/>
    <ellipse style="fill: none; fill-opacity:0; stroke-width: 8; stroke: #ff0000" cx="1440" cy="660" rx="60" ry="60"/>
    <text font-size="50.8" style="fill: #000000;text-anchor:middle;font-family:sans-serif;font-style:normal;font-weight:normal" x="1440" y="675.4">
      <tspan x="1440" y="675.4">D</tspan>
    </text>
  </g>
  <g>
    <line style="fill: none; fill-opacity:0; stroke-width: 4; stroke: #ff0000" x1="1440" y1="596.005" x2="1440" y2="555.967"/>
    <polygon style="fill: #ff0000" points="1440,548.467 1445,558.467 1440,555.967 1435,558.467 "/>
    <polygon style="fill: none; fill-opacity:0; stroke-width: 4; stroke: #ff0000" points="1440,548.467 1445,558.467 1440,555.967 1435,558.467 "/>
  </g>
</svg>
