<svg xmlns="http://www.w3.org/2000/svg" xmlns:xlink="http://www.w3.org/1999/xlink" width="100%" height="100%" viewBox="57 233 1207 311"><g><ellipse cx="240" cy="300" fill="#fff" rx="60" ry="60"/><ellipse cx="240" cy="300" fill="none" fill-opacity="0" stroke="#1e90ff" stroke-width="4" rx="60" ry="60"/><text x="240" y="315.4" fill="#000" font-family="sans-serif" font-size="50.8" font-style="normal" font-weight="normal" text-anchor="middle"><tspan x="240" y="315.4">A</tspan></text></g><g><ellipse cx="120" cy="480" fill="#fff" rx="60" ry="60"/><ellipse cx="120" cy="480" fill="none" fill-opacity="0" stroke="#1e90ff" stroke-width="4" rx="60" ry="60"/><text x="120" y="495.4" fill="#000" font-family="sans-serif" font-size="50.8" font-style="normal" font-weight="normal" text-anchor="middle"><tspan x="120" y="495.4">B</tspan></text></g><g><ellipse cx="360" cy="480" fill="#fff" rx="60" ry="60"/><ellipse cx="360" cy="480" fill="none" fill-opacity="0" stroke="#1e90ff" stroke-width="4" rx="60" ry="60"/><text x="360" y="495.4" fill="#000" font-family="sans-serif" font-size="50.8" font-style="normal" font-weight="normal" text-anchor="middle"><tspan x="360" y="495.4">C</tspan></text></g><g><line x1="154.365" x2="198.994" y1="428.452" y2="361.509" fill="none" fill-opacity="0" stroke="#1e90ff" stroke-width="4"/><polygon fill="#1e90ff" points="203.154 355.269 201.767 366.363 198.994 361.509 193.447 360.816"/><polygon fill="none" fill-opacity="0" stroke="#1e90ff" stroke-width="4" points="203.154 355.269 201.767 366.363 198.994 361.509 193.447 360.816"/></g><g><line x1="325.635" x2="281.006" y1="428.452" y2="361.509" fill="none" fill-opacity="0" stroke="#1e90ff" stroke-width="4"/><polygon fill="#1e90ff" points="276.846 355.269 286.553 360.816 281.006 361.509 278.233 366.363"/><polygon fill="none" fill-opacity="0" stroke="#1e90ff" stroke-width="4" points="276.846 355.269 286.553 360.816 281.006 361.509 278.233 366.363"/></g><g><ellipse cx="660" cy="300" fill="#fff" rx="60" ry="60"/><ellipse cx="660" cy="300" fill="none" fill-opacity="0" stroke="red" stroke-width="8" rx="60" ry="60"/><text x="660" y="315.4" fill="#000" font-family="sans-serif" font-size="50.8" font-style="normal" font-weight="normal" text-anchor="middle"><tspan x="660" y="315.4">A</tspan></text></g><g><ellipse cx="540" cy="480" fill="#fff" rx="60" ry="60"/><ellipse cx="540" cy="480" fill="none" fill-opacity="0" stroke="red" stroke-width="8" rx="60" ry="60"/><text x="540" y="495.4" fill="#000" font-family="sans-serif" font-size="50.8" font-style="normal" font-weight="normal" text-anchor="middle"><tspan x="540" y="495.4">B</tspan></text></g><g><ellipse cx="780" cy="480" fill="#fff" rx="60" ry="60"/><ellipse cx="780" cy="480" fill="none" fill-opacity="0" stroke="#1e90ff" stroke-width="4" rx="60" ry="60"/><text x="780" y="495.4" fill="#000" font-family="sans-serif" font-size="50.8" font-style="normal" font-weight="normal" text-anchor="middle"><tspan x="780" y="495.4">C</tspan></text></g><g><line x1="575.449" x2="617.91" y1="426.826" y2="363.135" fill="none" fill-opacity="0" stroke="red" stroke-width="4"/><polygon fill="red" points="622.07 356.895 620.683 367.989 617.91 363.135 612.363 362.442"/><polygon fill="none" fill-opacity="0" stroke="red" stroke-width="4" points="622.07 356.895 620.683 367.989 617.91 363.135 612.363 362.442"/></g><g><line x1="745.635" x2="702.09" y1="428.452" y2="363.135" fill="none" fill-opacity="0" stroke="#1e90ff" stroke-width="4"/><polygon fill="#1e90ff" points="697.93 356.895 707.637 362.442 702.09 363.135 699.317 367.989"/><polygon fill="none" fill-opacity="0" stroke="#1e90ff" stroke-width="4" points="697.93 356.895 707.637 362.442 702.09 363.135 699.317 367.989"/></g><g><ellipse cx="1080" cy="300" fill="#fff" rx="60" ry="60"/><ellipse cx="1080" cy="300" fill="none" fill-opacity="0" stroke="red" stroke-width="12" rx="60" ry="60"/><text x="1080" y="315.4" fill="#000" font-family="sans-serif" font-size="50.8" font-style="normal" font-weight="normal" text-anchor="middle"><tspan x="1080" y="315.4">A</tspan></text></g><g><ellipse cx="960" cy="480" fill="#fff" rx="60" ry="60"/><ellipse cx="960" cy="480" fill="none" fill-opacity="0" stroke="#1e90ff" stroke-width="8" rx="60" ry="60"/><text x="960" y="495.4" fill="#000" font-family="sans-serif" font-size="50.8" font-style="normal" font-weight="normal" text-anchor="middle"><tspan x="960" y="495.4">B</tspan></text></g><g><ellipse cx="1200" cy="480" fill="#fff" rx="60" ry="60"/><ellipse cx="1200" cy="480" fill="none" fill-opacity="0" stroke="red" stroke-width="8" rx="60" ry="60"/><text x="1200" y="495.4" fill="#000" font-family="sans-serif" font-size="50.8" font-style="normal" font-weight="normal" text-anchor="middle"><tspan x="1200" y="495.4">C</tspan></text></g><g><line x1="995.449" x2="1036.77" y1="426.826" y2="364.849" fill="none" fill-opacity="0" stroke="#1e90ff" stroke-width="4"/><polygon fill="#1e90ff" points="1040.93 358.609 1039.54 369.703 1036.77 364.849 1031.22 364.156"/><polygon fill="none" fill-opacity="0" stroke="#1e90ff" stroke-width="4" points="1040.93 358.609 1039.54 369.703 1036.77 364.849 1031.22 364.156"/></g><g><line x1="1164.55" x2="1123.23" y1="426.826" y2="364.849" fill="none" fill-opacity="0" stroke="red" stroke-width="4"/><polygon fill="red" points="1119.07 358.609 1128.78 364.156 1123.23 364.849 1120.46 369.703"/><polygon fill="none" fill-opacity="0" stroke="red" stroke-width="4" points="1119.07 358.609 1128.78 364.156 1123.23 364.849 1120.46 369.703"/></g></svg>