<svg xmlns="http://www.w3.org/2000/svg" xmlns:xlink="http://www.w3.org/1999/xlink" width="100%" height="100%" viewBox="-23 253 1627 491"><g><ellipse cx="160" cy="320" fill="#fff" rx="60" ry="60"/><ellipse cx="160" cy="320" fill="none" fill-opacity="0" stroke="#1e90ff" stroke-width="4" rx="60" ry="60"/><text x="160" y="335.4" fill="#000" font-family="sans-serif" font-size="50.8" font-style="normal" font-weight="normal" text-anchor="middle"><tspan x="160" y="335.4">A</tspan></text></g><g><ellipse cx="40" cy="500" fill="#fff" rx="60" ry="60"/><ellipse cx="40" cy="500" fill="none" fill-opacity="0" stroke="#1e90ff" stroke-width="4" rx="60" ry="60"/><text x="40" y="515.4" fill="#000" font-family="sans-serif" font-size="50.8" font-style="normal" font-weight="normal" text-anchor="middle"><tspan x="40" y="515.4">B</tspan></text></g><g><ellipse cx="280" cy="500" fill="#fff" rx="60" ry="60"/><ellipse cx="280" cy="500" fill="none" fill-opacity="0" stroke="#1e90ff" stroke-width="4" rx="60" ry="60"/><text x="280" y="515.4" fill="#000" font-family="sans-serif" font-size="50.8" font-style="normal" font-weight="normal" text-anchor="middle"><tspan x="280" y="515.4">C</tspan></text></g><g><line x1="74.365" x2="118.994" y1="448.452" y2="381.509" fill="none" fill-opacity="0" stroke="#1e90ff" stroke-width="4"/><polygon fill="#1e90ff" points="123.154 375.269 121.767 386.363 118.994 381.509 113.447 380.816"/><polygon fill="none" fill-opacity="0" stroke="#1e90ff" stroke-width="4" points="123.154 375.269 121.767 386.363 118.994 381.509 113.447 380.816"/></g><g><line x1="245.635" x2="201.006" y1="448.452" y2="381.509" fill="none" fill-opacity="0" stroke="#1e90ff" stroke-width="4"/><polygon fill="#1e90ff" points="196.846 375.269 206.553 380.816 201.006 381.509 198.233 386.363"/><polygon fill="none" fill-opacity="0" stroke="#1e90ff" stroke-width="4" points="196.846 375.269 206.553 380.816 201.006 381.509 198.233 386.363"/></g><g><ellipse cx="160" cy="680" fill="#fff" rx="60" ry="60"/><ellipse cx="160" cy="680" fill="none" fill-opacity="0" stroke="#1e90ff" stroke-width="4" rx="60" ry="60"/><text x="160" y="695.4" fill="#000" font-family="sans-serif" font-size="50.8" font-style="normal" font-weight="normal" text-anchor="middle"><tspan x="160" y="695.4">D</tspan></text></g><g><line x1="194.365" x2="238.994" y1="628.452" y2="561.509" fill="none" fill-opacity="0" stroke="#1e90ff" stroke-width="4"/><polygon fill="#1e90ff" points="243.154 555.269 241.767 566.363 238.994 561.509 233.447 560.816"/><polygon fill="none" fill-opacity="0" stroke="#1e90ff" stroke-width="4" points="243.154 555.269 241.767 566.363 238.994 561.509 233.447 560.816"/></g><g><ellipse cx="580" cy="320" fill="#fff" rx="60" ry="60"/><ellipse cx="580" cy="320" fill="none" fill-opacity="0" stroke="#1e90ff" stroke-width="4" rx="60" ry="60"/><text x="580" y="335.4" fill="#000" font-family="sans-serif" font-size="50.8" font-style="normal" font-weight="normal" text-anchor="middle"><tspan x="580" y="335.4">A</tspan></text></g><g><ellipse cx="460" cy="500" fill="#fff" rx="60" ry="60"/><ellipse cx="460" cy="500" fill="none" fill-opacity="0" stroke="red" stroke-width="8" rx="60" ry="60"/><text x="460" y="515.4" fill="#000" font-family="sans-serif" font-size="50.8" font-style="normal" font-weight="normal" text-anchor="middle"><tspan x="460" y="515.4">B</tspan></text></g><g><ellipse cx="700" cy="500" fill="#fff" rx="60" ry="60"/><ellipse cx="700" cy="500" fill="none" fill-opacity="0" stroke="#1e90ff" stroke-width="4" rx="60" ry="60"/><text x="700" y="515.4" fill="#000" font-family="sans-serif" font-size="50.8" font-style="normal" font-weight="normal" text-anchor="middle"><tspan x="700" y="515.4">C</tspan></text></g><g><line x1="495.449" x2="538.994" y1="446.826" y2="381.509" fill="none" fill-opacity="0" stroke="#1e90ff" stroke-width="4"/><polygon fill="#1e90ff" points="543.154 375.269 541.767 386.363 538.994 381.509 533.447 380.816"/><polygon fill="none" fill-opacity="0" stroke="#1e90ff" stroke-width="4" points="543.154 375.269 541.767 386.363 538.994 381.509 533.447 380.816"/></g><g><line x1="665.635" x2="621.006" y1="448.452" y2="381.509" fill="none" fill-opacity="0" stroke="#1e90ff" stroke-width="4"/><polygon fill="#1e90ff" points="616.846 375.269 626.553 380.816 621.006 381.509 618.233 386.363"/><polygon fill="none" fill-opacity="0" stroke="#1e90ff" stroke-width="4" points="616.846 375.269 626.553 380.816 621.006 381.509 618.233 386.363"/></g><g><ellipse cx="580" cy="680" fill="#fff" rx="60" ry="60"/><ellipse cx="580" cy="680" fill="none" fill-opacity="0" stroke="red" stroke-width="8" rx="60" ry="60"/><text x="580" y="695.4" fill="#000" font-family="sans-serif" font-size="50.8" font-style="normal" font-weight="normal" text-anchor="middle"><tspan x="580" y="695.4">D</tspan></text></g><g><line x1="615.449" x2="658.994" y1="626.826" y2="561.509" fill="none" fill-opacity="0" stroke="#1e90ff" stroke-width="4"/><polygon fill="#1e90ff" points="663.154 555.269 661.767 566.363 658.994 561.509 653.447 560.816"/><polygon fill="none" fill-opacity="0" stroke="#1e90ff" stroke-width="4" points="663.154 555.269 661.767 566.363 658.994 561.509 653.447 560.816"/></g><g><ellipse cx="1000" cy="320" fill="#fff" rx="60" ry="60"/><ellipse cx="1000" cy="320" fill="none" fill-opacity="0" stroke="red" stroke-width="8" rx="60" ry="60"/><text x="1000" y="335.4" fill="#000" font-family="sans-serif" font-size="50.8" font-style="normal" font-weight="normal" text-anchor="middle"><tspan x="1000" y="335.4">A</tspan></text></g><g><ellipse cx="880" cy="500" fill="#fff" rx="60" ry="60"/><ellipse cx="880" cy="500" fill="none" fill-opacity="0" stroke="red" stroke-width="8" rx="60" ry="60"/><text x="880" y="515.4" fill="#000" font-family="sans-serif" font-size="50.8" font-style="normal" font-weight="normal" text-anchor="middle"><tspan x="880" y="515.4">B</tspan></text></g><g><ellipse cx="1120" cy="500" fill="#fff" rx="60" ry="60"/><ellipse cx="1120" cy="500" fill="none" fill-opacity="0" stroke="red" stroke-width="8" rx="60" ry="60"/><text x="1120" y="515.4" fill="#000" font-family="sans-serif" font-size="50.8" font-style="normal" font-weight="normal" text-anchor="middle"><tspan x="1120" y="515.4">C</tspan></text></g><g><line x1="915.449" x2="957.91" y1="446.826" y2="383.135" fill="none" fill-opacity="0" stroke="red" stroke-width="4"/><polygon fill="red" points="962.07 376.895 960.683 387.989 957.91 383.135 952.363 382.442"/><polygon fill="none" fill-opacity="0" stroke="red" stroke-width="4" points="962.07 376.895 960.683 387.989 957.91 383.135 952.363 382.442"/></g><g><line x1="1084.55" x2="1042.09" y1="446.826" y2="383.135" fill="none" fill-opacity="0" stroke="#1e90ff" stroke-width="4"/><polygon fill="#1e90ff" points="1037.93 376.895 1047.64 382.442 1042.09 383.135 1039.32 387.989"/><polygon fill="none" fill-opacity="0" stroke="#1e90ff" stroke-width="4" points="1037.93 376.895 1047.64 382.442 1042.09 383.135 1039.32 387.989"/></g><g><ellipse cx="1000" cy="680" fill="#fff" rx="60" ry="60"/><ellipse cx="1000" cy="680" fill="none" fill-opacity="0" stroke="red" stroke-width="8" rx="60" ry="60"/><text x="1000" y="695.4" fill="#000" font-family="sans-serif" font-size="50.8" font-style="normal" font-weight="normal" text-anchor="middle"><tspan x="1000" y="695.4">D</tspan></text></g><g><line x1="1035.45" x2="1077.91" y1="626.826" y2="563.135" fill="none" fill-opacity="0" stroke="red" stroke-width="4"/><polygon fill="red" points="1082.07 556.895 1080.68 567.989 1077.91 563.135 1072.36 562.442"/><polygon fill="none" fill-opacity="0" stroke="red" stroke-width="4" points="1082.07 556.895 1080.68 567.989 1077.91 563.135 1072.36 562.442"/></g><g><ellipse cx="1420" cy="320" fill="#fff" rx="60" ry="60"/><ellipse cx="1420" cy="320" fill="none" fill-opacity="0" stroke="red" stroke-width="12" rx="60" ry="60"/><text x="1420" y="335.4" fill="#000" font-family="sans-serif" font-size="50.8" font-style="normal" font-weight="normal" text-anchor="middle"><tspan x="1420" y="335.4">A</tspan></text></g><g><ellipse cx="1300" cy="500" fill="#fff" rx="60" ry="60"/><ellipse cx="1300" cy="500" fill="none" fill-opacity="0" stroke="red" stroke-width="8" rx="60" ry="60"/><text x="1300" y="515.4" fill="#000" font-family="sans-serif" font-size="50.8" font-style="normal" font-weight="normal" text-anchor="middle"><tspan x="1300" y="515.4">B</tspan></text></g><g><ellipse cx="1540" cy="500" fill="#fff" rx="60" ry="60"/><ellipse cx="1540" cy="500" fill="none" fill-opacity="0" stroke="red" stroke-width="8" rx="60" ry="60"/><text x="1540" y="515.4" fill="#000" font-family="sans-serif" font-size="50.8" font-style="normal" font-weight="normal" text-anchor="middle"><tspan x="1540" y="515.4">C</tspan></text></g><g><line x1="1335.45" x2="1376.77" y1="446.826" y2="384.849" fill="none" fill-opacity="0" stroke="red" stroke-width="4"/><polygon fill="red" points="1380.93 378.609 1379.54 389.703 1376.77 384.849 1371.22 384.156"/><polygon fill="none" fill-opacity="0" stroke="red" stroke-width="4" points="1380.93 378.609 1379.54 389.703 1376.77 384.849 1371.22 384.156"/></g><g><line x1="1504.55" x2="1463.23" y1="446.826" y2="384.849" fill="none" fill-opacity="0" stroke="red" stroke-width="4"/><polygon fill="red" points="1459.07 378.609 1468.78 384.156 1463.23 384.849 1460.46 389.703"/><polygon fill="none" fill-opacity="0" stroke="red" stroke-width="4" points="1459.07 378.609 1468.78 384.156 1463.23 384.849 1460.46 389.703"/></g><g><ellipse cx="1420" cy="680" fill="#fff" rx="60" ry="60"/><ellipse cx="1420" cy="680" fill="none" fill-opacity="0" stroke="red" stroke-width="8" rx="60" ry="60"/><text x="1420" y="695.4" fill="#000" font-family="sans-serif" font-size="50.8" font-style="normal" font-weight="normal" text-anchor="middle"><tspan x="1420" y="695.4">D</tspan></text></g><g><line x1="1455.45" x2="1497.91" y1="626.826" y2="563.135" fill="none" fill-opacity="0" stroke="red" stroke-width="4"/><polygon fill="red" points="1502.07 556.895 1500.68 567.989 1497.91 563.135 1492.36 562.442"/><polygon fill="none" fill-opacity="0" stroke="red" stroke-width="4" points="1502.07 556.895 1500.68 567.989 1497.91 563.135 1492.36 562.442"/></g></svg>