<svg xmlns="http://www.w3.org/2000/svg" xmlns:xlink="http://www.w3.org/1999/xlink" width="100%" height="100%" viewBox="515 -245 1389 669"><g><ellipse cx="580" cy="-180" fill="#fff" rx="60" ry="60"/><ellipse cx="580" cy="-180" fill="none" fill-opacity="0" stroke="#1e90ff" stroke-width="4" rx="60" ry="60"/><text x="580" y="-164.6" fill="#000" font-family="sans-serif" font-size="50.8" font-style="normal" font-weight="normal" text-anchor="middle"><tspan x="580" y="-164.6">A</tspan></text></g><g><ellipse cx="580" cy="0" fill="#fff" rx="60" ry="60"/><ellipse cx="580" cy="0" fill="none" fill-opacity="0" stroke="#1e90ff" stroke-width="4" rx="60" ry="60"/><text x="580" y="15.4" fill="#000" font-family="sans-serif" font-size="50.8" font-style="normal" font-weight="normal" text-anchor="middle"><tspan x="580" y="15.4">B</tspan></text></g><g><ellipse cx="580" cy="180" fill="#fff" rx="60" ry="60"/><ellipse cx="580" cy="180" fill="none" fill-opacity="0" stroke="#1e90ff" stroke-width="4" rx="60" ry="60"/><text x="580" y="195.4" fill="#000" font-family="sans-serif" font-size="50.8" font-style="normal" font-weight="normal" text-anchor="middle"><tspan x="580" y="195.4">C</tspan></text></g><g><line x1="580" x2="580" y1="-61.985" y2="-106.043" fill="none" fill-opacity="0" stroke="#1e90ff" stroke-width="4"/><polygon fill="#1e90ff" points="580 -113.543 585 -103.543 580 -106.043 575 -103.543"/><polygon fill="none" fill-opacity="0" stroke="#1e90ff" stroke-width="4" points="580 -113.543 585 -103.543 580 -106.043 575 -103.543"/></g><g><line x1="580" x2="580" y1="118.015" y2="73.957" fill="none" fill-opacity="0" stroke="#1e90ff" stroke-width="4"/><polygon fill="#1e90ff" points="580 66.457 585 76.457 580 73.957 575 76.457"/><polygon fill="none" fill-opacity="0" stroke="#1e90ff" stroke-width="4" points="580 66.457 585 76.457 580 73.957 575 76.457"/></g><g><ellipse cx="580" cy="360" fill="#fff" rx="60" ry="60"/><ellipse cx="580" cy="360" fill="none" fill-opacity="0" stroke="red" stroke-width="8" rx="60" ry="60"/><text x="580" y="375.4" fill="#000" font-family="sans-serif" font-size="50.8" font-style="normal" font-weight="normal" text-anchor="middle"><tspan x="580" y="375.4">D</tspan></text></g><g><line x1="580" x2="580" y1="296.005" y2="253.957" fill="none" fill-opacity="0" stroke="#1e90ff" stroke-width="4"/><polygon fill="#1e90ff" points="580 246.457 585 256.457 580 253.957 575 256.457"/><polygon fill="none" fill-opacity="0" stroke="#1e90ff" stroke-width="4" points="580 246.457 585 256.457 580 253.957 575 256.457"/></g><g><ellipse cx="760" cy="-180" fill="#fff" rx="60" ry="60"/><ellipse cx="760" cy="-180" fill="none" fill-opacity="0" stroke="#1e90ff" stroke-width="4" rx="60" ry="60"/><text x="760" y="-164.6" fill="#000" font-family="sans-serif" font-size="50.8" font-style="normal" font-weight="normal" text-anchor="middle"><tspan x="760" y="-164.6">A</tspan></text></g><g><ellipse cx="760" cy="0" fill="#fff" rx="60" ry="60"/><ellipse cx="760" cy="0" fill="none" fill-opacity="0" stroke="#1e90ff" stroke-width="4" rx="60" ry="60"/><text x="760" y="15.4" fill="#000" font-family="sans-serif" font-size="50.8" font-style="normal" font-weight="normal" text-anchor="middle"><tspan x="760" y="15.4">B</tspan></text></g><g><ellipse cx="760" cy="180" fill="#fff" rx="60" ry="60"/><ellipse cx="760" cy="180" fill="none" fill-opacity="0" stroke="red" stroke-width="8" rx="60" ry="60"/><text x="760" y="195.4" fill="#000" font-family="sans-serif" font-size="50.8" font-style="normal" font-weight="normal" text-anchor="middle"><tspan x="760" y="195.4">C</tspan></text></g><g><line x1="760" x2="760" y1="-61.985" y2="-106.043" fill="none" fill-opacity="0" stroke="#1e90ff" stroke-width="4"/><polygon fill="#1e90ff" points="760 -113.543 765 -103.543 760 -106.043 755 -103.543"/><polygon fill="none" fill-opacity="0" stroke="#1e90ff" stroke-width="4" points="760 -113.543 765 -103.543 760 -106.043 755 -103.543"/></g><g><line x1="760" x2="760" y1="116.005" y2="73.957" fill="none" fill-opacity="0" stroke="#1e90ff" stroke-width="4"/><polygon fill="#1e90ff" points="760 66.457 765 76.457 760 73.957 755 76.457"/><polygon fill="none" fill-opacity="0" stroke="#1e90ff" stroke-width="4" points="760 66.457 765 76.457 760 73.957 755 76.457"/></g><g><ellipse cx="760" cy="360" fill="#fff" rx="60" ry="60"/><ellipse cx="760" cy="360" fill="none" fill-opacity="0" stroke="red" stroke-width="8" rx="60" ry="60"/><text x="760" y="375.4" fill="#000" font-family="sans-serif" font-size="50.8" font-style="normal" font-weight="normal" text-anchor="middle"><tspan x="760" y="375.4">D</tspan></text></g><g><line x1="760" x2="760" y1="296.005" y2="255.967" fill="none" fill-opacity="0" stroke="red" stroke-width="4"/><polygon fill="red" points="760 248.467 765 258.467 760 255.967 755 258.467"/><polygon fill="none" fill-opacity="0" stroke="red" stroke-width="4" points="760 248.467 765 258.467 760 255.967 755 258.467"/></g><g><ellipse cx="940" cy="-180" fill="#fff" rx="60" ry="60"/><ellipse cx="940" cy="-180" fill="none" fill-opacity="0" stroke="#1e90ff" stroke-width="4" rx="60" ry="60"/><text x="940" y="-164.6" fill="#000" font-family="sans-serif" font-size="50.8" font-style="normal" font-weight="normal" text-anchor="middle"><tspan x="940" y="-164.6">A</tspan></text></g><g><ellipse cx="940" cy="0" fill="#fff" rx="60" ry="60"/><ellipse cx="940" cy="0" fill="none" fill-opacity="0" stroke="red" stroke-width="8" rx="60" ry="60"/><text x="940" y="15.4" fill="#000" font-family="sans-serif" font-size="50.8" font-style="normal" font-weight="normal" text-anchor="middle"><tspan x="940" y="15.4">B</tspan></text></g><g><ellipse cx="940" cy="180" fill="#fff" rx="60" ry="60"/><ellipse cx="940" cy="180" fill="none" fill-opacity="0" stroke="red" stroke-width="8" rx="60" ry="60"/><text x="940" y="195.4" fill="#000" font-family="sans-serif" font-size="50.8" font-style="normal" font-weight="normal" text-anchor="middle"><tspan x="940" y="195.4">C</tspan></text></g><g><line x1="940" x2="940" y1="-63.995" y2="-106.043" fill="none" fill-opacity="0" stroke="#1e90ff" stroke-width="4"/><polygon fill="#1e90ff" points="940 -113.543 945 -103.543 940 -106.043 935 -103.543"/><polygon fill="none" fill-opacity="0" stroke="#1e90ff" stroke-width="4" points="940 -113.543 945 -103.543 940 -106.043 935 -103.543"/></g><g><line x1="940" x2="940" y1="116.005" y2="75.968" fill="none" fill-opacity="0" stroke="red" stroke-width="4"/><polygon fill="red" points="940 68.468 945 78.468 940 75.968 935 78.468"/><polygon fill="none" fill-opacity="0" stroke="red" stroke-width="4" points="940 68.468 945 78.468 940 75.968 935 78.468"/></g><g><ellipse cx="940" cy="360" fill="#fff" rx="60" ry="60"/><ellipse cx="940" cy="360" fill="none" fill-opacity="0" stroke="red" stroke-width="8" rx="60" ry="60"/><text x="940" y="375.4" fill="#000" font-family="sans-serif" font-size="50.8" font-style="normal" font-weight="normal" text-anchor="middle"><tspan x="940" y="375.4">D</tspan></text></g><g><line x1="940" x2="940" y1="296.005" y2="255.967" fill="none" fill-opacity="0" stroke="red" stroke-width="4"/><polygon fill="red" points="940 248.467 945 258.467 940 255.967 935 258.467"/><polygon fill="none" fill-opacity="0" stroke="red" stroke-width="4" points="940 248.467 945 258.467 940 255.967 935 258.467"/></g><g><ellipse cx="1120" cy="-180" fill="#fff" rx="60" ry="60"/><ellipse cx="1120" cy="-180" fill="none" fill-opacity="0" stroke="red" stroke-width="8" rx="60" ry="60"/><text x="1120" y="-164.6" fill="#000" font-family="sans-serif" font-size="50.8" font-style="normal" font-weight="normal" text-anchor="middle"><tspan x="1120" y="-164.6">A</tspan></text></g><g><ellipse cx="1120" cy="0" fill="#fff" rx="60" ry="60"/><ellipse cx="1120" cy="0" fill="none" fill-opacity="0" stroke="red" stroke-width="8" rx="60" ry="60"/><text x="1120" y="15.4" fill="#000" font-family="sans-serif" font-size="50.8" font-style="normal" font-weight="normal" text-anchor="middle"><tspan x="1120" y="15.4">B</tspan></text></g><g><ellipse cx="1120" cy="180" fill="#fff" rx="60" ry="60"/><ellipse cx="1120" cy="180" fill="none" fill-opacity="0" stroke="red" stroke-width="8" rx="60" ry="60"/><text x="1120" y="195.4" fill="#000" font-family="sans-serif" font-size="50.8" font-style="normal" font-weight="normal" text-anchor="middle"><tspan x="1120" y="195.4">C</tspan></text></g><g><line x1="1120" x2="1120" y1="-63.995" y2="-104.033" fill="none" fill-opacity="0" stroke="red" stroke-width="4"/><polygon fill="red" points="1120 -111.533 1125 -101.533 1120 -104.033 1115 -101.533"/><polygon fill="none" fill-opacity="0" stroke="red" stroke-width="4" points="1120 -111.533 1125 -101.533 1120 -104.033 1115 -101.533"/></g><g><line x1="1120" x2="1120" y1="116.005" y2="75.968" fill="none" fill-opacity="0" stroke="red" stroke-width="4"/><polygon fill="red" points="1120 68.468 1125 78.468 1120 75.968 1115 78.468"/><polygon fill="none" fill-opacity="0" stroke="red" stroke-width="4" points="1120 68.468 1125 78.468 1120 75.968 1115 78.468"/></g><g><ellipse cx="1120" cy="360" fill="#fff" rx="60" ry="60"/><ellipse cx="1120" cy="360" fill="none" fill-opacity="0" stroke="red" stroke-width="8" rx="60" ry="60"/><text x="1120" y="375.4" fill="#000" font-family="sans-serif" font-size="50.8" font-style="normal" font-weight="normal" text-anchor="middle"><tspan x="1120" y="375.4">D</tspan></text></g><g><line x1="1120" x2="1120" y1="296.005" y2="255.967" fill="none" fill-opacity="0" stroke="red" stroke-width="4"/><polygon fill="red" points="1120 248.467 1125 258.467 1120 255.967 1115 258.467"/><polygon fill="none" fill-opacity="0" stroke="red" stroke-width="4" points="1120 248.467 1125 258.467 1120 255.967 1115 258.467"/></g><g><ellipse cx="1300" cy="-180" fill="#fff" rx="60" ry="60"/><ellipse cx="1300" cy="-180" fill="none" fill-opacity="0" stroke="#1e90ff" stroke-width="8" rx="60" ry="60"/><text x="1300" y="-164.6" fill="#000" font-family="sans-serif" font-size="50.8" font-style="normal" font-weight="normal" text-anchor="middle"><tspan x="1300" y="-164.6">A</tspan></text></g><g><ellipse cx="1300" cy="0" fill="#fff" rx="60" ry="60"/><ellipse cx="1300" cy="0" fill="none" fill-opacity="0" stroke="red" stroke-width="8" rx="60" ry="60"/><text x="1300" y="15.4" fill="#000" font-family="sans-serif" font-size="50.8" font-style="normal" font-weight="normal" text-anchor="middle"><tspan x="1300" y="15.4">B</tspan></text></g><g><ellipse cx="1300" cy="180" fill="#fff" rx="60" ry="60"/><ellipse cx="1300" cy="180" fill="none" fill-opacity="0" stroke="red" stroke-width="8" rx="60" ry="60"/><text x="1300" y="195.4" fill="#000" font-family="sans-serif" font-size="50.8" font-style="normal" font-weight="normal" text-anchor="middle"><tspan x="1300" y="195.4">C</tspan></text></g><g><line x1="1300" x2="1300" y1="-63.995" y2="-104.033" fill="none" fill-opacity="0" stroke="#1e90ff" stroke-width="4"/><polygon fill="#1e90ff" points="1300 -111.533 1305 -101.533 1300 -104.033 1295 -101.533"/><polygon fill="none" fill-opacity="0" stroke="#1e90ff" stroke-width="4" points="1300 -111.533 1305 -101.533 1300 -104.033 1295 -101.533"/></g><g><line x1="1300" x2="1300" y1="116.005" y2="75.968" fill="none" fill-opacity="0" stroke="red" stroke-width="4"/><polygon fill="red" points="1300 68.468 1305 78.468 1300 75.968 1295 78.468"/><polygon fill="none" fill-opacity="0" stroke="red" stroke-width="4" points="1300 68.468 1305 78.468 1300 75.968 1295 78.468"/></g><g><ellipse cx="1300" cy="360" fill="#fff" rx="60" ry="60"/><ellipse cx="1300" cy="360" fill="none" fill-opacity="0" stroke="red" stroke-width="8" rx="60" ry="60"/><text x="1300" y="375.4" fill="#000" font-family="sans-serif" font-size="50.8" font-style="normal" font-weight="normal" text-anchor="middle"><tspan x="1300" y="375.4">D</tspan></text></g><g><line x1="1300" x2="1300" y1="296.005" y2="255.967" fill="none" fill-opacity="0" stroke="red" stroke-width="4"/><polygon fill="red" points="1300 248.467 1305 258.467 1300 255.967 1295 258.467"/><polygon fill="none" fill-opacity="0" stroke="red" stroke-width="4" points="1300 248.467 1305 258.467 1300 255.967 1295 258.467"/></g><g><ellipse cx="1480" cy="-180" fill="#fff" rx="60" ry="60"/><ellipse cx="1480" cy="-180" fill="none" fill-opacity="0" stroke="#1e90ff" stroke-width="8" rx="60" ry="60"/><text x="1480" y="-164.6" fill="#000" font-family="sans-serif" font-size="50.8" font-style="normal" font-weight="normal" text-anchor="middle"><tspan x="1480" y="-164.6">A</tspan></text></g><g><ellipse cx="1480" cy="0" fill="#fff" rx="60" ry="60"/><ellipse cx="1480" cy="0" fill="none" fill-opacity="0" stroke="#1e90ff" stroke-width="8" rx="60" ry="60"/><text x="1480" y="15.4" fill="#000" font-family="sans-serif" font-size="50.8" font-style="normal" font-weight="normal" text-anchor="middle"><tspan x="1480" y="15.4">B</tspan></text></g><g><ellipse cx="1480" cy="180" fill="#fff" rx="60" ry="60"/><ellipse cx="1480" cy="180" fill="none" fill-opacity="0" stroke="red" stroke-width="8" rx="60" ry="60"/><text x="1480" y="195.4" fill="#000" font-family="sans-serif" font-size="50.8" font-style="normal" font-weight="normal" text-anchor="middle"><tspan x="1480" y="195.4">C</tspan></text></g><g><line x1="1480" x2="1480" y1="-63.995" y2="-104.033" fill="none" fill-opacity="0" stroke="#1e90ff" stroke-width="4"/><polygon fill="#1e90ff" points="1480 -111.533 1485 -101.533 1480 -104.033 1475 -101.533"/><polygon fill="none" fill-opacity="0" stroke="#1e90ff" stroke-width="4" points="1480 -111.533 1485 -101.533 1480 -104.033 1475 -101.533"/></g><g><line x1="1480" x2="1480" y1="116.005" y2="75.968" fill="none" fill-opacity="0" stroke="#1e90ff" stroke-width="4"/><polygon fill="#1e90ff" points="1480 68.468 1485 78.468 1480 75.968 1475 78.468"/><polygon fill="none" fill-opacity="0" stroke="#1e90ff" stroke-width="4" points="1480 68.468 1485 78.468 1480 75.968 1475 78.468"/></g><g><ellipse cx="1480" cy="360" fill="#fff" rx="60" ry="60"/><ellipse cx="1480" cy="360" fill="none" fill-opacity="0" stroke="red" stroke-width="8" rx="60" ry="60"/><text x="1480" y="375.4" fill="#000" font-family="sans-serif" font-size="50.8" font-style="normal" font-weight="normal" text-anchor="middle"><tspan x="1480" y="375.4">D</tspan></text></g><g><line x1="1480" x2="1480" y1="296.005" y2="255.967" fill="none" fill-opacity="0" stroke="red" stroke-width="4"/><polygon fill="red" points="1480 248.467 1485 258.467 1480 255.967 1475 258.467"/><polygon fill="none" fill-opacity="0" stroke="red" stroke-width="4" points="1480 248.467 1485 258.467 1480 255.967 1475 258.467"/></g><g><ellipse cx="1660" cy="-180" fill="#fff" rx="60" ry="60"/><ellipse cx="1660" cy="-180" fill="none" fill-opacity="0" stroke="#1e90ff" stroke-width="8" rx="60" ry="60"/><text x="1660" y="-164.6" fill="#000" font-family="sans-serif" font-size="50.8" font-style="normal" font-weight="normal" text-anchor="middle"><tspan x="1660" y="-164.6">A</tspan></text></g><g><ellipse cx="1660" cy="0" fill="#fff" rx="60" ry="60"/><ellipse cx="1660" cy="0" fill="none" fill-opacity="0" stroke="#1e90ff" stroke-width="8" rx="60" ry="60"/><text x="1660" y="15.4" fill="#000" font-family="sans-serif" font-size="50.8" font-style="normal" font-weight="normal" text-anchor="middle"><tspan x="1660" y="15.4">B</tspan></text></g><g><ellipse cx="1660" cy="180" fill="#fff" rx="60" ry="60"/><ellipse cx="1660" cy="180" fill="none" fill-opacity="0" stroke="#1e90ff" stroke-width="8" rx="60" ry="60"/><text x="1660" y="195.4" fill="#000" font-family="sans-serif" font-size="50.8" font-style="normal" font-weight="normal" text-anchor="middle"><tspan x="1660" y="195.4">C</tspan></text></g><g><line x1="1660" x2="1660" y1="-63.995" y2="-104.033" fill="none" fill-opacity="0" stroke="#1e90ff" stroke-width="4"/><polygon fill="#1e90ff" points="1660 -111.533 1665 -101.533 1660 -104.033 1655 -101.533"/><polygon fill="none" fill-opacity="0" stroke="#1e90ff" stroke-width="4" points="1660 -111.533 1665 -101.533 1660 -104.033 1655 -101.533"/></g><g><line x1="1660" x2="1660" y1="116.005" y2="75.968" fill="none" fill-opacity="0" stroke="#1e90ff" stroke-width="4"/><polygon fill="#1e90ff" points="1660 68.468 1665 78.468 1660 75.968 1655 78.468"/><polygon fill="none" fill-opacity="0" stroke="#1e90ff" stroke-width="4" points="1660 68.468 1665 78.468 1660 75.968 1655 78.468"/></g><g><ellipse cx="1660" cy="360" fill="#fff" rx="60" ry="60"/><ellipse cx="1660" cy="360" fill="none" fill-opacity="0" stroke="red" stroke-width="8" rx="60" ry="60"/><text x="1660" y="375.4" fill="#000" font-family="sans-serif" font-size="50.8" font-style="normal" font-weight="normal" text-anchor="middle"><tspan x="1660" y="375.4">D</tspan></text></g><g><line x1="1660" x2="1660" y1="296.005" y2="255.967" fill="none" fill-opacity="0" stroke="#1e90ff" stroke-width="4"/><polygon fill="#1e90ff" points="1660 248.467 1665 258.467 1660 255.967 1655 258.467"/><polygon fill="none" fill-opacity="0" stroke="#1e90ff" stroke-width="4" points="1660 248.467 1665 258.467 1660 255.967 1655 258.467"/></g><g><ellipse cx="1840" cy="-180" fill="#fff" rx="60" ry="60"/><ellipse cx="1840" cy="-180" fill="none" fill-opacity="0" stroke="#1e90ff" stroke-width="8" rx="60" ry="60"/><text x="1840" y="-164.6" fill="#000" font-family="sans-serif" font-size="50.8" font-style="normal" font-weight="normal" text-anchor="middle"><tspan x="1840" y="-164.6">A</tspan></text></g><g><ellipse cx="1840" cy="0" fill="#fff" rx="60" ry="60"/><ellipse cx="1840" cy="0" fill="none" fill-opacity="0" stroke="#1e90ff" stroke-width="8" rx="60" ry="60"/><text x="1840" y="15.4" fill="#000" font-family="sans-serif" font-size="50.8" font-style="normal" font-weight="normal" text-anchor="middle"><tspan x="1840" y="15.4">B</tspan></text></g><g><ellipse cx="1840" cy="180" fill="#fff" rx="60" ry="60"/><ellipse cx="1840" cy="180" fill="none" fill-opacity="0" stroke="#1e90ff" stroke-width="8" rx="60" ry="60"/><text x="1840" y="195.4" fill="#000" font-family="sans-serif" font-size="50.8" font-style="normal" font-weight="normal" text-anchor="middle"><tspan x="1840" y="195.4">C</tspan></text></g><g><line x1="1840" x2="1840" y1="-63.995" y2="-104.033" fill="none" fill-opacity="0" stroke="#1e90ff" stroke-width="4"/><polygon fill="#1e90ff" points="1840 -111.533 1845 -101.533 1840 -104.033 1835 -101.533"/><polygon fill="none" fill-opacity="0" stroke="#1e90ff" stroke-width="4" points="1840 -111.533 1845 -101.533 1840 -104.033 1835 -101.533"/></g><g><line x1="1840" x2="1840" y1="116.005" y2="75.968" fill="none" fill-opacity="0" stroke="#1e90ff" stroke-width="4"/><polygon fill="#1e90ff" points="1840 68.468 1845 78.468 1840 75.968 1835 78.468"/><polygon fill="none" fill-opacity="0" stroke="#1e90ff" stroke-width="4" points="1840 68.468 1845 78.468 1840 75.968 1835 78.468"/></g><g><ellipse cx="1840" cy="360" fill="#fff" rx="60" ry="60"/><ellipse cx="1840" cy="360" fill="none" fill-opacity="0" stroke="#1e90ff" stroke-width="8" rx="60" ry="60"/><text x="1840" y="375.4" fill="#000" font-family="sans-serif" font-size="50.8" font-style="normal" font-weight="normal" text-anchor="middle"><tspan x="1840" y="375.4">D</tspan></text></g><g><line x1="1840" x2="1840" y1="296.005" y2="255.967" fill="none" fill-opacity="0" stroke="#1e90ff" stroke-width="4"/><polygon fill="#1e90ff" points="1840 248.467 1845 258.467 1840 255.967 1835 258.467"/><polygon fill="none" fill-opacity="0" stroke="#1e90ff" stroke-width="4" points="1840 248.467 1845 258.467 1840 255.967 1835 258.467"/></g></svg>