<?xml version="1.0" encoding="UTF-8" standalone="no"?>
<!DOCTYPE svg PUBLIC "-//W3C//DTD SVG 1.0//EN" "http://www.w3.org/TR/2001/PR-SVG-20010719/DTD/svg10.dtd">
<svg width="100%" height="100%" viewBox="515 -245 1389 669" xmlns="http://www.w3.org/2000/svg" xmlns:xlink="http://www.w3.org/1999/xlink">
  <g>
    <ellipse style="fill: #ffffff" cx="580" cy="-180" rx="60" ry="60"/>
    <ellipse style="fill: none; fill-opacity:0; stroke-width: 4; stroke: #1e90ff" cx="580" cy="-180" rx="60" ry="60"/>
    <text font-size="50.8" style="fill: #000000;text-anchor:middle;font-family:sans-serif;font-style:normal;font-weight:normal" x="580" y="-164.6">
      <tspan x="580" y="-164.6">A</tspan>
    </text>
  </g>
  <g>
    <ellipse style="fill: #ffffff" cx="580" cy="0" rx="60" ry="60"/>
    <ellipse style="fill: none; fill-opacity:0; stroke-width: 4; stroke: #1e90ff" cx="580" cy="0" rx="60" ry="60"/>
    <text font-size="50.8" style="fill: #000000;text-anchor:middle;font-family:sans-serif;font-style:normal;font-weight:normal" x="580" y="15.4">
      <tspan x="580" y="15.4">B</tspan>
    </text>
  </g>
  <g>
    <ellipse style="fill: #ffffff" cx="580" cy="180" rx="60" ry="60"/>
    <ellipse style="fill: none; fill-opacity:0; stroke-width: 4; stroke: #1e90ff" cx="580" cy="180" rx="60" ry="60"/>
    <text font-size="50.8" style="fill: #000000;text-anchor:middle;font-family:sans-serif;font-style:normal;font-weight:normal" x="580" y="195.4">
      <tspan x="580" y="195.4">C</tspan>
    </text>
  </g>
  <g>
    <line style="fill: none; fill-opacity:0; stroke-width: 4; stroke: #1e90ff" x1="580" y1="-61.9849" x2="580" y2="-106.043"/>
    <polygon style="fill: #1e90ff" points="580,-113.543 585,-103.543 580,-106.043 575,-103.543 "/>
    <polygon style="fill: none; fill-opacity:0; stroke-width: 4; stroke: #1e90ff" points="580,-113.543 585,-103.543 580,-106.043 575,-103.543 "/>
  </g>
  <g>
    <line style="fill: none; fill-opacity:0; stroke-width: 4; stroke: #1e90ff" x1="580" y1="118.015" x2="580" y2="73.957"/>
    <polygon style="fill: #1e90ff" points="580,66.457 585,76.457 580,73.957 575,76.457 "/>
    <polygon style="fill: none; fill-opacity:0; stroke-width: 4; stroke: #1e90ff" points="580,66.457 585,76.457 580,73.957 575,76.457 "/>
  </g>
  <g>
    <ellipse style="fill: #ffffff" cx="580" cy="360" rx="60" ry="60"/>
    <ellipse style="fill: none; fill-opacity:0; stroke-width: 8; stroke: #ff0000" cx="580" cy="360" rx="60" ry="60"/>
    <text font-size="50.8" style="fill: #000000;text-anchor:middle;font-family:sans-serif;font-style:normal;font-weight:normal" x="580" y="375.4">
      <tspan x="580" y="375.4">D</tspan>
    </text>
  </g>
  <g>
    <line style="fill: none; fill-opacity:0; stroke-width: 4; stroke: #1e90ff" x1="580" y1="296.005" x2="580" y2="253.957"/>
    <polygon style="fill: #1e90ff" points="580,246.457 585,256.457 580,253.957 575,256.457 "/>
    <polygon style="fill: none; fill-opacity:0; stroke-width: 4; stroke: #1e90ff" points="580,246.457 585,256.457 580,253.957 575,256.457 "/>
  </g>
  <g>
    <ellipse style="fill: #ffffff" cx="760" cy="-180" rx="60" ry="60"/>
    <ellipse style="fill: none; fill-opacity:0; stroke-width: 4; stroke: #1e90ff" cx="760" cy="-180" rx="60" ry="60"/>
    <text font-size="50.8" style="fill: #000000;text-anchor:middle;font-family:sans-serif;font-style:normal;font-weight:normal" x="760" y="-164.6">
      <tspan x="760" y="-164.6">A</tspan>
    </text>
  </g>
  <g>
    <ellipse style="fill: #ffffff" cx="760" cy="0" rx="60" ry="60"/>
    <ellipse style="fill: none; fill-opacity:0; stroke-width: 4; stroke: #1e90ff" cx="760" cy="0" rx="60" ry="60"/>
    <text font-size="50.8" style="fill: #000000;text-anchor:middle;font-family:sans-serif;font-style:normal;font-weight:normal" x="760" y="15.4">
      <tspan x="760" y="15.4">B</tspan>
    </text>
  </g>
  <g>
    <ellipse style="fill: #ffffff" cx="760" cy="180" rx="60" ry="60"/>
    <ellipse style="fill: none; fill-opacity:0; stroke-width: 8; stroke: #ff0000" cx="760" cy="180" rx="60" ry="60"/>
    <text font-size="50.8" style="fill: #000000;text-anchor:middle;font-family:sans-serif;font-style:normal;font-weight:normal" x="760" y="195.4">
      <tspan x="760" y="195.4">C</tspan>
    </text>
  </g>
  <g>
    <line style="fill: none; fill-opacity:0; stroke-width: 4; stroke: #1e90ff" x1="760" y1="-61.9849" x2="760" y2="-106.043"/>
    <polygon style="fill: #1e90ff" points="760,-113.543 765,-103.543 760,-106.043 755,-103.543 "/>
    <polygon style="fill: none; fill-opacity:0; stroke-width: 4; stroke: #1e90ff" points="760,-113.543 765,-103.543 760,-106.043 755,-103.543 "/>
  </g>
  <g>
    <line style="fill: none; fill-opacity:0; stroke-width: 4; stroke: #1e90ff" x1="760" y1="116.005" x2="760" y2="73.957"/>
    <polygon style="fill: #1e90ff" points="760,66.457 765,76.457 760,73.957 755,76.457 "/>
    <polygon style="fill: none; fill-opacity:0; stroke-width: 4; stroke: #1e90ff" points="760,66.457 765,76.457 760,73.957 755,76.457 "/>
  </g>
  <g>
    <ellipse style="fill: #ffffff" cx="760" cy="360" rx="60" ry="60"/>
    <ellipse style="fill: none; fill-opacity:0; stroke-width: 8; stroke: #ff0000" cx="760" cy="360" rx="60" ry="60"/>
    <text font-size="50.8" style="fill: #000000;text-anchor:middle;font-family:sans-serif;font-style:normal;font-weight:normal" x="760" y="375.4">
      <tspan x="760" y="375.4">D</tspan>
    </text>
  </g>
  <g>
    <line style="fill: none; fill-opacity:0; stroke-width: 4; stroke: #ff0000" x1="760" y1="296.005" x2="760" y2="255.967"/>
    <polygon style="fill: #ff0000" points="760,248.467 765,258.467 760,255.967 755,258.467 "/>
    <polygon style="fill: none; fill-opacity:0; stroke-width: 4; stroke: #ff0000" points="760,248.467 765,258.467 760,255.967 755,258.467 "/>
  </g>
  <g>
    <ellipse style="fill: #ffffff" cx="940" cy="-180" rx="60" ry="60"/>
    <ellipse style="fill: none; fill-opacity:0; stroke-width: 4; stroke: #1e90ff" cx="940" cy="-180" rx="60" ry="60"/>
    <text font-size="50.8" style="fill: #000000;text-anchor:middle;font-family:sans-serif;font-style:normal;font-weight:normal" x="940" y="-164.6">
      <tspan x="940" y="-164.6">A</tspan>
    </text>
  </g>
  <g>
    <ellipse style="fill: #ffffff" cx="940" cy="0" rx="60" ry="60"/>
    <ellipse style="fill: none; fill-opacity:0; stroke-width: 8; stroke: #ff0000" cx="940" cy="0" rx="60" ry="60"/>
    <text font-size="50.8" style="fill: #000000;text-anchor:middle;font-family:sans-serif;font-style:normal;font-weight:normal" x="940" y="15.4">
      <tspan x="940" y="15.4">B</tspan>
    </text>
  </g>
  <g>
    <ellipse style="fill: #ffffff" cx="940" cy="180" rx="60" ry="60"/>
    <ellipse style="fill: none; fill-opacity:0; stroke-width: 8; stroke: #ff0000" cx="940" cy="180" rx="60" ry="60"/>
    <text font-size="50.8" style="fill: #000000;text-anchor:middle;font-family:sans-serif;font-style:normal;font-weight:normal" x="940" y="195.4">
      <tspan x="940" y="195.4">C</tspan>
    </text>
  </g>
  <g>
    <line style="fill: none; fill-opacity:0; stroke-width: 4; stroke: #1e90ff" x1="940" y1="-63.9954" x2="940" y2="-106.043"/>
    <polygon style="fill: #1e90ff" points="940,-113.543 945,-103.543 940,-106.043 935,-103.543 "/>
    <polygon style="fill: none; fill-opacity:0; stroke-width: 4; stroke: #1e90ff" points="940,-113.543 945,-103.543 940,-106.043 935,-103.543 "/>
  </g>
  <g>
    <line style="fill: none; fill-opacity:0; stroke-width: 4; stroke: #ff0000" x1="940" y1="116.005" x2="940" y2="75.9675"/>
    <polygon style="fill: #ff0000" points="940,68.4675 945,78.4675 940,75.9675 935,78.4675 "/>
    <polygon style="fill: none; fill-opacity:0; stroke-width: 4; stroke: #ff0000" points="940,68.4675 945,78.4675 940,75.9675 935,78.4675 "/>
  </g>
  <g>
    <ellipse style="fill: #ffffff" cx="940" cy="360" rx="60" ry="60"/>
    <ellipse style="fill: none; fill-opacity:0; stroke-width: 8; stroke: #ff0000" cx="940" cy="360" rx="60" ry="60"/>
    <text font-size="50.8" style="fill: #000000;text-anchor:middle;font-family:sans-serif;font-style:normal;font-weight:normal" x="940" y="375.4">
      <tspan x="940" y="375.4">D</tspan>
    </text>
  </g>
  <g>
    <line style="fill: none; fill-opacity:0; stroke-width: 4; stroke: #ff0000" x1="940" y1="296.005" x2="940" y2="255.967"/>
    <polygon style="fill: #ff0000" points="940,248.467 945,258.467 940,255.967 935,258.467 "/>
    <polygon style="fill: none; fill-opacity:0; stroke-width: 4; stroke: #ff0000" points="940,248.467 945,258.467 940,255.967 935,258.467 "/>
  </g>
  <g>
    <ellipse style="fill: #ffffff" cx="1120" cy="-180" rx="60" ry="60"/>
    <ellipse style="fill: none; fill-opacity:0; stroke-width: 8; stroke: #ff0000" cx="1120" cy="-180" rx="60" ry="60"/>
    <text font-size="50.8" style="fill: #000000;text-anchor:middle;font-family:sans-serif;font-style:normal;font-weight:normal" x="1120" y="-164.6">
      <tspan x="1120" y="-164.6">A</tspan>
    </text>
  </g>
  <g>
    <ellipse style="fill: #ffffff" cx="1120" cy="0" rx="60" ry="60"/>
    <ellipse style="fill: none; fill-opacity:0; stroke-width: 8; stroke: #ff0000" cx="1120" cy="0" rx="60" ry="60"/>
    <text font-size="50.8" style="fill: #000000;text-anchor:middle;font-family:sans-serif;font-style:normal;font-weight:normal" x="1120" y="15.4">
      <tspan x="1120" y="15.4">B</tspan>
    </text>
  </g>
  <g>
    <ellipse style="fill: #ffffff" cx="1120" cy="180" rx="60" ry="60"/>
    <ellipse style="fill: none; fill-opacity:0; stroke-width: 8; stroke: #ff0000" cx="1120" cy="180" rx="60" ry="60"/>
    <text font-size="50.8" style="fill: #000000;text-anchor:middle;font-family:sans-serif;font-style:normal;font-weight:normal" x="1120" y="195.4">
      <tspan x="1120" y="195.4">C</tspan>
    </text>
  </g>
  <g>
    <line style="fill: none; fill-opacity:0; stroke-width: 4; stroke: #ff0000" x1="1120" y1="-63.9954" x2="1120" y2="-104.033"/>
    <polygon style="fill: #ff0000" points="1120,-111.533 1125,-101.533 1120,-104.033 1115,-101.533 "/>
    <polygon style="fill: none; fill-opacity:0; stroke-width: 4; stroke: #ff0000" points="1120,-111.533 1125,-101.533 1120,-104.033 1115,-101.533 "/>
  </g>
  <g>
    <line style="fill: none; fill-opacity:0; stroke-width: 4; stroke: #ff0000" x1="1120" y1="116.005" x2="1120" y2="75.9675"/>
    <polygon style="fill: #ff0000" points="1120,68.4675 1125,78.4675 1120,75.9675 1115,78.4675 "/>
    <polygon style="fill: none; fill-opacity:0; stroke-width: 4; stroke: #ff0000" points="1120,68.4675 1125,78.4675 1120,75.9675 1115,78.4675 "/>
  </g>
  <g>
    <ellipse style="fill: #ffffff" cx="1120" cy="360" rx="60" ry="60"/>
    <ellipse style="fill: none; fill-opacity:0; stroke-width: 8; stroke: #ff0000" cx="1120" cy="360" rx="60" ry="60"/>
    <text font-size="50.8" style="fill: #000000;text-anchor:middle;font-family:sans-serif;font-style:normal;font-weight:normal" x="1120" y="375.4">
      <tspan x="1120" y="375.4">D</tspan>
    </text>
  </g>
  <g>
    <line style="fill: none; fill-opacity:0; stroke-width: 4; stroke: #ff0000" x1="1120" y1="296.005" x2="1120" y2="255.967"/>
    <polygon style="fill: #ff0000" points="1120,248.467 1125,258.467 1120,255.967 1115,258.467 "/>
    <polygon style="fill: none; fill-opacity:0; stroke-width: 4; stroke: #ff0000" points="1120,248.467 1125,258.467 1120,255.967 1115,258.467 "/>
  </g>
  <g>
    <ellipse style="fill: #ffffff" cx="1300" cy="-180" rx="60" ry="60"/>
    <ellipse style="fill: none; fill-opacity:0; stroke-width: 8; stroke: #1e90ff" cx="1300" cy="-180" rx="60" ry="60"/>
    <text font-size="50.8" style="fill: #000000;text-anchor:middle;font-family:sans-serif;font-style:normal;font-weight:normal" x="1300" y="-164.6">
      <tspan x="1300" y="-164.6">A</tspan>
    </text>
  </g>
  <g>
    <ellipse style="fill: #ffffff" cx="1300" cy="0" rx="60" ry="60"/>
    <ellipse style="fill: none; fill-opacity:0; stroke-width: 8; stroke: #ff0000" cx="1300" cy="0" rx="60" ry="60"/>
    <text font-size="50.8" style="fill: #000000;text-anchor:middle;font-family:sans-serif;font-style:normal;font-weight:normal" x="1300" y="15.4">
      <tspan x="1300" y="15.4">B</tspan>
    </text>
  </g>
  <g>
    <ellipse style="fill: #ffffff" cx="1300" cy="180" rx="60" ry="60"/>
    <ellipse style="fill: none; fill-opacity:0; stroke-width: 8; stroke: #ff0000" cx="1300" cy="180" rx="60" ry="60"/>
    <text font-size="50.8" style="fill: #000000;text-anchor:middle;font-family:sans-serif;font-style:normal;font-weight:normal" x="1300" y="195.4">
      <tspan x="1300" y="195.4">C</tspan>
    </text>
  </g>
  <g>
    <line style="fill: none; fill-opacity:0; stroke-width: 4; stroke: #1e90ff" x1="1300" y1="-63.9954" x2="1300" y2="-104.033"/>
    <polygon style="fill: #1e90ff" points="1300,-111.533 1305,-101.533 1300,-104.033 1295,-101.533 "/>
    <polygon style="fill: none; fill-opacity:0; stroke-width: 4; stroke: #1e90ff" points="1300,-111.533 1305,-101.533 1300,-104.033 1295,-101.533 "/>
  </g>
  <g>
    <line style="fill: none; fill-opacity:0; stroke-width: 4; stroke: #ff0000" x1="1300" y1="116.005" x2="1300" y2="75.9675"/>
    <polygon style="fill: #ff0000" points="1300,68.4675 1305,78.4675 1300,75.9675 1295,78.4675 "/>
    <polygon style="fill: none; fill-opacity:0; stroke-width: 4; stroke: #ff0000" points="1300,68.4675 1305,78.4675 1300,75.9675 1295,78.4675 "/>
  </g>
  <g>
    <ellipse style="fill: #ffffff" cx="1300" cy="360" rx="60" ry="60"/>
    <ellipse style="fill: none; fill-opacity:0; stroke-width: 8; stroke: #ff0000" cx="1300" cy="360" rx="60" ry="60"/>
    <text font-size="50.8" style="fill: #000000;text-anchor:middle;font-family:sans-serif;font-style:normal;font-weight:normal" x="1300" y="375.4">
      <tspan x="1300" y="375.4">D</tspan>
    </text>
  </g>
  <g>
    <line style="fill: none; fill-opacity:0; stroke-width: 4; stroke: #ff0000" x1="1300" y1="296.005" x2="1300" y2="255.967"/>
    <polygon style="fill: #ff0000" points="1300,248.467 1305,258.467 1300,255.967 1295,258.467 "/>
    <polygon style="fill: none; fill-opacity:0; stroke-width: 4; stroke: #ff0000" points="1300,248.467 1305,258.467 1300,255.967 1295,258.467 "/>
  </g>
  <g>
    <ellipse style="fill: #ffffff" cx="1480" cy="-180" rx="60" ry="60"/>
    <ellipse style="fill: none; fill-opacity:0; stroke-width: 8; stroke: #1e90ff" cx="1480" cy="-180" rx="60" ry="60"/>
    <text font-size="50.8" style="fill: #000000;text-anchor:middle;font-family:sans-serif;font-style:normal;font-weight:normal" x="1480" y="-164.6">
      <tspan x="1480" y="-164.6">A</tspan>
    </text>
  </g>
  <g>
    <ellipse style="fill: #ffffff" cx="1480" cy="0" rx="60" ry="60"/>
    <ellipse style="fill: none; fill-opacity:0; stroke-width: 8; stroke: #1e90ff" cx="1480" cy="0" rx="60" ry="60"/>
    <text font-size="50.8" style="fill: #000000;text-anchor:middle;font-family:sans-serif;font-style:normal;font-weight:normal" x="1480" y="15.4">
      <tspan x="1480" y="15.4">B</tspan>
    </text>
  </g>
  <g>
    <ellipse style="fill: #ffffff" cx="1480" cy="180" rx="60" ry="60"/>
    <ellipse style="fill: none; fill-opacity:0; stroke-width: 8; stroke: #ff0000" cx="1480" cy="180" rx="60" ry="60"/>
    <text font-size="50.8" style="fill: #000000;text-anchor:middle;font-family:sans-serif;font-style:normal;font-weight:normal" x="1480" y="195.4">
      <tspan x="1480" y="195.4">C</tspan>
    </text>
  </g>
  <g>
    <line style="fill: none; fill-opacity:0; stroke-width: 4; stroke: #1e90ff" x1="1480" y1="-63.9954" x2="1480" y2="-104.033"/>
    <polygon style="fill: #1e90ff" points="1480,-111.533 1485,-101.533 1480,-104.033 1475,-101.533 "/>
    <polygon style="fill: none; fill-opacity:0; stroke-width: 4; stroke: #1e90ff" points="1480,-111.533 1485,-101.533 1480,-104.033 1475,-101.533 "/>
  </g>
  <g>
    <line style="fill: none; fill-opacity:0; stroke-width: 4; stroke: #1e90ff" x1="1480" y1="116.005" x2="1480" y2="75.9675"/>
    <polygon style="fill: #1e90ff" points="1480,68.4675 1485,78.4675 1480,75.9675 1475,78.4675 "/>
    <polygon style="fill: none; fill-opacity:0; stroke-width: 4; stroke: #1e90ff" points="1480,68.4675 1485,78.4675 1480,75.9675 1475,78.4675 "/>
  </g>
  <g>
    <ellipse style="fill: #ffffff" cx="1480" cy="360" rx="60" ry="60"/>
    <ellipse style="fill: none; fill-opacity:0; stroke-width: 8; stroke: #ff0000" cx="1480" cy="360" rx="60" ry="60"/>
    <text font-size="50.8" style="fill: #000000;text-anchor:middle;font-family:sans-serif;font-style:normal;font-weight:normal" x="1480" y="375.4">
      <tspan x="1480" y="375.4">D</tspan>
    </text>
  </g>
  <g>
    <line style="fill: none; fill-opacity:0; stroke-width: 4; stroke: #ff0000" x1="1480" y1="296.005" x2="1480" y2="255.967"/>
    <polygon style="fill: #ff0000" points="1480,248.467 1485,258.467 1480,255.967 1475,258.467 "/>
    <polygon style="fill: none; fill-opacity:0; stroke-width: 4; stroke: #ff0000" points="1480,248.467 1485,258.467 1480,255.967 1475,258.467 "/>
  </g>
  <g>
    <ellipse style="fill: #ffffff" cx="1660" cy="-180" rx="60" ry="60"/>
    <ellipse style="fill: none; fill-opacity:0; stroke-width: 8; stroke: #1e90ff" cx="1660" cy="-180" rx="60" ry="60"/>
    <text font-size="50.8" style="fill: #000000;text-anchor:middle;font-family:sans-serif;font-style:normal;font-weight:normal" x="1660" y="-164.6">
      <tspan x="1660" y="-164.6">A</tspan>
    </text>
  </g>
  <g>
    <ellipse style="fill: #ffffff" cx="1660" cy="0" rx="60" ry="60"/>
    <ellipse style="fill: none; fill-opacity:0; stroke-width: 8; stroke: #1e90ff" cx="1660" cy="0" rx="60" ry="60"/>
    <text font-size="50.8" style="fill: #000000;text-anchor:middle;font-family:sans-serif;font-style:normal;font-weight:normal" x="1660" y="15.4">
      <tspan x="1660" y="15.4">B</tspan>
    </text>
  </g>
  <g>
    <ellipse style="fill: #ffffff" cx="1660" cy="180" rx="60" ry="60"/>
    <ellipse style="fill: none; fill-opacity:0; stroke-width: 8; stroke: #1e90ff" cx="1660" cy="180" rx="60" ry="60"/>
    <text font-size="50.8" style="fill: #000000;text-anchor:middle;font-family:sans-serif;font-style:normal;font-weight:normal" x="1660" y="195.4">
      <tspan x="1660" y="195.4">C</tspan>
    </text>
  </g>
  <g>
    <line style="fill: none; fill-opacity:0; stroke-width: 4; stroke: #1e90ff" x1="1660" y1="-63.9954" x2="1660" y2="-104.033"/>
    <polygon style="fill: #1e90ff" points="1660,-111.533 1665,-101.533 1660,-104.033 1655,-101.533 "/>
    <polygon style="fill: none; fill-opacity:0; stroke-width: 4; stroke: #1e90ff" points="1660,-111.533 1665,-101.533 1660,-104.033 1655,-101.533 "/>
  </g>
  <g>
    <line style="fill: none; fill-opacity:0; stroke-width: 4; stroke: #1e90ff" x1="1660" y1="116.005" x2="1660" y2="75.9675"/>
    <polygon style="fill: #1e90ff" points="1660,68.4675 1665,78.4675 1660,75.9675 1655,78.4675 "/>
    <polygon style="fill: none; fill-opacity:0; stroke-width: 4; stroke: #1e90ff" points="1660,68.4675 1665,78.4675 1660,75.9675 1655,78.4675 "/>
  </g>
  <g>
    <ellipse style="fill: #ffffff" cx="1660" cy="360" rx="60" ry="60"/>
    <ellipse style="fill: none; fill-opacity:0; stroke-width: 8; stroke: #ff0000" cx="1660" cy="360" rx="60" ry="60"/>
    <text font-size="50.8" style="fill: #000000;text-anchor:middle;font-family:sans-serif;font-style:normal;font-weight:normal" x="1660" y="375.4">
      <tspan x="1660" y="375.4">D</tspan>
    </text>
  </g>
  <g>
    <line style="fill: none; fill-opacity:0; stroke-width: 4; stroke: #1e90ff" x1="1660" y1="296.005" x2="1660" y2="255.967"/>
    <polygon style="fill: #1e90ff" points="1660,248.467 1665,258.467 1660,255.967 1655,258.467 "/>
    <polygon style="fill: none; fill-opacity:0; stroke-width: 4; stroke: #1e90ff" points="1660,248.467 1665,258.467 1660,255.967 1655,258.467 "/>
  </g>
  <g>
    <ellipse style="fill: #ffffff" cx="1840" cy="-180" rx="60" ry="60"/>
    <ellipse style="fill: none; fill-opacity:0; stroke-width: 8; stroke: #1e90ff" cx="1840" cy="-180" rx="60" ry="60"/>
    <text font-size="50.8" style="fill: #000000;text-anchor:middle;font-family:sans-serif;font-style:normal;font-weight:normal" x="1840" y="-164.6">
      <tspan x="1840" y="-164.6">A</tspan>
    </text>
  </g>
  <g>
    <ellipse style="fill: #ffffff" cx="1840" cy="0" rx="60" ry="60"/>
    <ellipse style="fill: none; fill-opacity:0; stroke-width: 8; stroke: #1e90ff" cx="1840" cy="0" rx="60" ry="60"/>
    <text font-size="50.8" style="fill: #000000;text-anchor:middle;font-family:sans-serif;font-style:normal;font-weight:normal" x="1840" y="15.4">
      <tspan x="1840" y="15.4">B</tspan>
    </text>
  </g>
  <g>
    <ellipse style="fill: #ffffff" cx="1840" cy="180" rx="60" ry="60"/>
    <ellipse style="fill: none; fill-opacity:0; stroke-width: 8; stroke: #1e90ff" cx="1840" cy="180" rx="60" ry="60"/>
    <text font-size="50.8" style="fill: #000000;text-anchor:middle;font-family:sans-serif;font-style:normal;font-weight:normal" x="1840" y="195.4">
      <tspan x="1840" y="195.4">C</tspan>
    </text>
  </g>
  <g>
    <line style="fill: none; fill-opacity:0; stroke-width: 4; stroke: #1e90ff" x1="1840" y1="-63.9954" x2="1840" y2="-104.033"/>
    <polygon style="fill: #1e90ff" points="1840,-111.533 1845,-101.533 1840,-104.033 1835,-101.533 "/>
    <polygon style="fill: none; fill-opacity:0; stroke-width: 4; stroke: #1e90ff" points="1840,-111.533 1845,-101.533 1840,-104.033 1835,-101.533 "/>
  </g>
  <g>
    <line style="fill: none; fill-opacity:0; stroke-width: 4; stroke: #1e90ff" x1="1840" y1="116.005" x2="1840" y2="75.9675"/>
    <polygon style="fill: #1e90ff" points="1840,68.4675 1845,78.4675 1840,75.9675 1835,78.4675 "/>
    <polygon style="fill: none; fill-opacity:0; stroke-width: 4; stroke: #1e90ff" points="1840,68.4675 1845,78.4675 1840,75.9675 1835,78.4675 "/>
  </g>
  <g>
    <ellipse style="fill: #ffffff" cx="1840" cy="360" rx="60" ry="60"/>
    <ellipse style="fill: none; fill-opacity:0; stroke-width: 8; stroke: #1e90ff" cx="1840" cy="360" rx="60" ry="60"/>
    <text font-size="50.8" style="fill: #000000;text-anchor:middle;font-family:sans-serif;font-style:normal;font-weight:normal" x="1840" y="375.4">
      <tspan x="1840" y="375.4">D</tspan>
    </text>
  </g>
  <g>
    <line style="fill: none; fill-opacity:0; stroke-width: 4; stroke: #1e90ff" x1="1840" y1="296.005" x2="1840" y2="255.967"/>
    <polygon style="fill: #1e90ff" points="1840,248.467 1845,258.467 1840,255.967 1835,258.467 "/>
    <polygon style="fill: none; fill-opacity:0; stroke-width: 4; stroke: #1e90ff" points="1840,248.467 1845,258.467 1840,255.967 1835,258.467 "/>
  </g>
</svg>
