<svg xmlns="http://www.w3.org/2000/svg" xmlns:xlink="http://www.w3.org/1999/xlink" width="220" height="60" version="1.1" viewBox="0 0 220 60"><path fill="#E36729" d="M32.0946509,6.80280992 C43.0241593,7.90909091 51.713919,16.6152893 52.8183272,27.5660331 L59.4675424,22.777686 C56.8004326,11.6050413 48.0235674,2.81256198 36.8733259,0.140826446 L32.0946509,6.80280992 Z M8.5249522,7.87586777 L2.12468039,2.56338843 L7.33517077,9.08553719 C3.81531823,12.8806612 1.24347996,17.5710744 0,22.777686 L6.64995763,27.5660331 C7.13274955,22.7759504 9.06762912,18.4150413 12.0062012,14.9320661 L29.7343899,37.1191736 L45.0666834,18.6032231 L29.7343899,25.4819008 L14.2469397,12.6255372 C17.804406,9.42719008 22.3514596,7.31082645 27.3738813,6.80280992 L22.5959488,0.140826446 C17.2097627,1.43157025 12.381596,4.15239669 8.5249522,7.87586777 L8.5249522,7.87586777 Z M0,37.0839669 C2.6680997,48.2571074 11.4442225,57.0510744 22.5959488,59.7215702 L27.3746237,53.0583471 C16.4446204,51.952562 7.75436581,43.2466116 6.64995763,32.295124 L0,37.0839669 L0,37.0839669 Z"/><path fill="#1E518E" d="M51.4033583,36.3927273 L62.1250014,36.3927273 C64.7834502,36.3927273 66.6960585,36.8789256 67.8655483,37.8483471 C69.0340483,38.8192562 69.6192881,40.3923967 69.6192881,42.5690083 C69.6192881,42.7133058 69.6163186,42.8690083 69.6113694,43.0328926 C69.6064203,43.1987603 69.5881083,43.4667769 69.5566811,43.8384298 L62.7899229,43.8384298 L62.7899229,43.7452066 C62.7899229,42.9815702 62.5964102,42.4090909 62.2106221,42.0287603 C61.8238442,41.6457025 61.2452857,41.4538017 60.4722248,41.4538017 L52.3761185,41.4538017 C51.0267262,41.4538017 50.1356274,41.5879339 49.7033171,41.8566942 C49.2710067,42.1249587 49.0552227,42.5947934 49.0552227,43.2659504 C49.0552227,43.9269421 49.2497253,44.4027273 49.6412049,44.6967769 C50.0329321,44.9908264 50.7542742,45.1807438 51.8044889,45.2633058 L63.3615525,45.4497521 C65.9977301,45.521405 67.8544127,46.1142149 68.9311055,47.2294215 C70.0075508,48.3423967 70.545526,50.2475207 70.545526,52.9420661 C70.545526,54.5402479 70.3475591,55.7779339 69.9511302,56.6558678 C69.5542065,57.532314 68.8873053,58.2820661 67.9501792,58.9009091 C67.3325223,59.2931405 66.4931424,59.5740496 65.431792,59.744876 C64.3704416,59.9144628 62.8361977,60 60.8278229,60 L51.4649756,60 C47.6224369,60 45.0523308,59.5690909 43.7546574,58.7072727 C42.4572314,57.8464463 41.8078998,56.2378512 41.8078998,53.8849587 C41.8078998,53.7510744 41.8158185,53.527438 41.8314084,53.2118182 C41.8467508,52.8959504 41.8700119,52.5128926 41.9011917,52.0571901 L48.8384489,52.0433058 L48.8384489,52.4603306 C48.8384489,53.3278512 49.0490363,53.9124793 49.4719432,54.2159504 C49.8943552,54.5228926 50.779515,54.6743802 52.1291547,54.6743802 L60.9513048,54.6743802 C61.8169153,54.6743802 62.4348197,54.5283471 62.8052654,54.232314 C63.1754636,53.9380165 63.3615525,53.4510744 63.3615525,52.7717355 C63.3615525,52.0787603 63.1479957,51.5831405 62.720387,51.2838843 C62.2927784,50.9853719 61.3732219,50.7840496 59.9622124,50.681157 L48.9305036,50.4329752 C46.1708441,50.3496694 44.3030259,49.8252893 43.3302657,48.8538843 C42.3565157,47.8842149 41.8700119,46.1201653 41.8700119,43.56 C41.8700119,42.24 41.9986905,41.1498347 42.256295,40.2929752 C42.5138995,39.4366116 42.9256708,38.7235537 43.4921037,38.1577686 C44.161727,37.5183471 45.0374833,37.0641322 46.1186304,36.7933884 C47.2005198,36.5276033 48.9619308,36.3927273 51.4033583,36.3927273 Z M212.828834,36.6709091 L212.828834,53.5752893 L199.122839,36.6709091 L188.725614,36.6709091 L188.725614,59.7215702 L195.739336,59.7215702 L195.739336,42.9565289 L209.536891,59.7215702 L219.827214,59.7215702 L219.827214,36.6709091 L212.828834,36.6709091 Z M180.240503,36.6709091 L180.240503,50.3397521 C180.240503,51.8360331 179.905444,52.8659504 179.235821,53.4292562 C178.566692,53.9908264 177.247985,54.2717355 175.280193,54.2717355 L171.294376,54.2717355 C168.926196,54.2717355 167.387993,54.0057025 166.682983,53.4741322 C165.976241,52.9435537 165.62485,51.8995041 165.62485,50.3397521 L165.62485,36.6709091 L158.609643,36.6709091 L158.609643,52.5228099 C158.609643,55.3420661 159.399779,57.2918182 160.982277,58.3735537 C162.562054,59.4572727 165.459547,60 169.671295,60 L177.520685,60 C181.105124,60 183.626975,59.4332231 185.083022,58.2961983 C186.541791,57.1616529 187.26932,55.2366942 187.26932,52.5228099 L187.26932,36.6709091 L180.240503,36.6709091 Z M129.43649,36.6709091 L147.915468,36.6709091 C151.562019,36.6709091 154.04304,37.2138843 155.362243,38.2963636 C156.68095,39.3795868 157.34018,42.0084298 157.34018,44.876281 C157.34018,46.8681818 157.046694,48.5556198 156.45898,49.5242975 C155.871265,50.4959504 154.888607,51.1457851 153.50853,51.4747934 C154.723304,51.7653719 155.635685,52.2753719 156.242701,53.0080165 C156.850707,53.7409091 157.153349,54.6904959 157.153349,55.8567769 L157.153349,59.7215702 L150.125274,59.7215702 L150.125274,56.8946281 C150.125274,55.9871901 149.90949,55.5307438 149.482377,55.1915702 C149.056005,54.8499174 148.213903,54.6800826 146.956813,54.6800826 L136.482134,54.6800826 L136.482134,59.7215702 L129.43649,59.7215702 L129.43649,36.6709091 Z M136.482134,42.4150413 L136.482134,48.9044628 L147.652419,48.9044628 C148.59004,48.9044628 149.246054,48.6855372 149.622438,48.2504132 C149.998575,47.8093388 150.185407,46.8106612 150.185407,45.6659504 C150.185407,44.7577686 149.984965,43.4454545 149.583835,43.0328926 C149.182209,42.6205785 148.538569,42.4150413 147.652419,42.4150413 L136.482134,42.4150413 Z M101.684244,36.6709091 L119.329039,36.6709091 C120.894215,36.6709091 122.143634,36.7467769 123.076059,36.8960331 C124.007988,37.0467769 124.797876,37.2912397 125.446466,37.6306612 C126.610759,38.2405785 127.45583,39.1460331 127.981927,40.3487603 C128.506787,41.5507438 128.768351,43.8590083 128.768351,45.9761157 C128.768351,49.1338017 128.243491,51.401405 127.192534,52.7065289 C126.143062,54.0131405 124.365319,54.6671901 121.862274,54.6671901 L108.729888,54.6671901 L108.729888,59.7215702 L94.7291698,59.7215702 L92.0947245,54.7043802 L78.9019589,54.7043802 L76.2496965,59.7215702 L68.5873853,59.7215702 L81.1476466,36.6709091 L90.1091159,36.6709091 L101.684244,58.312314 L101.684244,36.6709091 Z M85.5202418,42.1817355 L81.9496602,48.9381818 L89.0675622,48.9381818 L85.5202418,42.1817355 Z M108.729888,42.4150413 L108.729888,48.9381818 L119.081333,48.9381818 C120.019201,48.9381818 120.675462,48.7078512 121.051599,48.2504132 C121.427736,47.7897521 121.615805,46.9346281 121.615805,45.7586777 C121.615805,44.8190083 121.414869,43.484876 121.014233,43.0566942 C120.611865,42.6280165 119.967483,42.4150413 119.081333,42.4150413 L108.729888,42.4150413 Z"/></svg>